HIERARCHY
ROOT hip
{
  OFFSET 0 0 0
  CHANNELS 6 Xposition Yposition Zposition Zrotation Yrotation Xrotation
  JOINT abdomen
  {
    OFFSET 0 20.6881 -0.73152
    CHANNELS 3 Zrotation Xrotation Yrotation
    JOINT chest
    {
      OFFSET 0 11.7043 -0.48768
      CHANNELS 3 Zrotation Xrotation Yrotation
      JOINT neck
      {
        OFFSET 0 22.1894 -2.19456
        CHANNELS 3 Zrotation Xrotation Yrotation
        JOINT head
        {
          OFFSET -0.24384 7.07133 1.2192
          CHANNELS 3 Zrotation Xrotation Yrotation
          JOINT leftEye
          {
            OFFSET 4.14528 8.04674 8.04672
            CHANNELS 3 Zrotation Xrotation Yrotation
            End Site
            {
              OFFSET 1 0 0
            }
          }
          JOINT rightEye
          {
            OFFSET -3.6576 8.04674 8.04672
            CHANNELS 3 Zrotation Xrotation Yrotation
            End Site
            {
              OFFSET 1 0 0
            }
          }
        }
      }
      JOINT rCollar
      {
        OFFSET -2.68224 19.2634 -4.8768
        CHANNELS 3 Zrotation Xrotation Yrotation
        JOINT rShldr
        {
          OFFSET -8.77824 -1.95073 1.46304
          CHANNELS 3 Zrotation Xrotation Yrotation
          JOINT rForeArm
          {
            OFFSET -28.1742 -1.7115 0.48768
            CHANNELS 3 Zrotation Xrotation Yrotation
            JOINT rHand
            {
              OFFSET -22.5879 0.773209 7.07136
              CHANNELS 3 Zrotation Xrotation Yrotation
              JOINT rThumb1
              {
                OFFSET -1.2192 -0.487915 3.41376
                CHANNELS 3 Zrotation Xrotation Yrotation
                JOINT rThumb2
                {
                  OFFSET -3.37035 -0.52449 3.41376
                  CHANNELS 3 Zrotation Xrotation Yrotation
                  End Site
                  {
                    OFFSET -1.78271 -1.18214 1.43049
                  }
                }
              }
              JOINT rIndex1
              {
                OFFSET -7.75947 0.938293 5.60832
                CHANNELS 3 Zrotation Xrotation Yrotation
                JOINT rIndex2
                {
                  OFFSET -2.54057 -0.884171 1.56538
                  CHANNELS 3 Zrotation Xrotation Yrotation
                  End Site
                  {
                    OFFSET -1.62519 -0.234802 1.16502
                  }
                }
              }
              JOINT rMid1
              {
                OFFSET -8.24714 1.18213 3.41376
                CHANNELS 3 Zrotation Xrotation Yrotation
                JOINT rMid2
                {
                  OFFSET -3.10165 -0.590103 1.0647
                  CHANNELS 3 Zrotation Xrotation Yrotation
                  End Site
                  {
                    OFFSET -2.48547 -0.328903 0.83742
                  }
                }
              }
              JOINT rRing1
              {
                OFFSET -8.82822 0.546677 1.51678
                CHANNELS 3 Zrotation Xrotation Yrotation
                JOINT rRing2
                {
                  OFFSET -2.60934 -0.819778 -0.0198488
                  CHANNELS 3 Zrotation Xrotation Yrotation
                  End Site
                  {
                    OFFSET -2.33842 -0.294052 0.168128
                  }
                }
              }
              JOINT rPinky1
              {
                OFFSET -8.27202 -0.0477905 -0.4584
                CHANNELS 3 Zrotation Xrotation Yrotation
                JOINT rPinky2
                {
                  OFFSET -1.82734 -0.647385 -0.700984
                  CHANNELS 3 Zrotation Xrotation Yrotation
                  End Site
                  {
                    OFFSET -1.69225 -0.51767 -0.607171
                  }
                }
              }
            }
          }
        }
      }
      JOINT lCollar
      {
        OFFSET 2.68224 19.2634 -4.8768
        CHANNELS 3 Zrotation Xrotation Yrotation
        JOINT lShldr
        {
          OFFSET 8.77824 -1.95073 1.46304
          CHANNELS 3 Zrotation Xrotation Yrotation
          JOINT lForeArm
          {
            OFFSET 28.1742 -1.7115 0.48768
            CHANNELS 3 Zrotation Xrotation Yrotation
            JOINT lHand
            {
              OFFSET 22.5879 0.773209 7.07136
              CHANNELS 3 Zrotation Xrotation Yrotation
              JOINT lThumb1
              {
                OFFSET 1.2192 -0.487915 3.41376
                CHANNELS 3 Zrotation Xrotation Yrotation
                JOINT lThumb2
                {
                  OFFSET 3.37035 -0.52449 3.41376
                  CHANNELS 3 Zrotation Xrotation Yrotation
                  End Site
                  {
                    OFFSET 1.78271 -1.18214 1.43049
                  }
                }
              }
              JOINT lIndex1
              {
                OFFSET 7.75947 0.938293 5.60832
                CHANNELS 3 Zrotation Xrotation Yrotation
                JOINT lIndex2
                {
                  OFFSET 2.54057 -0.884171 1.56538
                  CHANNELS 3 Zrotation Xrotation Yrotation
                  End Site
                  {
                    OFFSET 1.62519 -0.234802 1.16502
                  }
                }
              }
              JOINT lMid1
              {
                OFFSET 8.24714 1.18213 3.41376
                CHANNELS 3 Zrotation Xrotation Yrotation
                JOINT lMid2
                {
                  OFFSET 3.10165 -0.590103 1.0647
                  CHANNELS 3 Zrotation Xrotation Yrotation
                  End Site
                  {
                    OFFSET 2.48547 -0.328903 0.83742
                  }
                }
              }
              JOINT lRing1
              {
                OFFSET 8.82822 0.546677 1.51678
                CHANNELS 3 Zrotation Xrotation Yrotation
                JOINT lRing2
                {
                  OFFSET 2.60934 -0.819778 -0.0198488
                  CHANNELS 3 Zrotation Xrotation Yrotation
                  End Site
                  {
                    OFFSET 2.33842 -0.294052 0.168128
                  }
                }
              }
              JOINT lPinky1
              {
                OFFSET 8.27202 -0.0477905 -0.4584
                CHANNELS 3 Zrotation Xrotation Yrotation
                JOINT lPinky2
                {
                  OFFSET 1.82734 -0.647385 -0.700984
                  CHANNELS 3 Zrotation Xrotation Yrotation
                  End Site
                  {
                    OFFSET 1.69225 -0.51767 -0.607171
                  }
                }
              }
            }
          }
        }
      }
    }
  }
  JOINT rButtock
  {
    OFFSET -8.77824 4.35084 1.2192
    CHANNELS 3 Zrotation Xrotation Yrotation
    JOINT rThigh
    {
      OFFSET 0 -1.70687 -2.19456
      CHANNELS 3 Zrotation Xrotation Yrotation
      JOINT rShin
      {
        OFFSET 0 -36.8199 0.73152
        CHANNELS 3 Zrotation Xrotation Yrotation
        JOINT rFoot
        {
          OFFSET 0.73152 -45.1104 -5.12064
          CHANNELS 3 Zrotation Xrotation Yrotation
          End Site
          {
            OFFSET -1.1221 -3.69964 12.103
          }
        }
      }
    }
  }
  JOINT lButtock
  {
    OFFSET 8.77824 4.35084 1.2192
    CHANNELS 3 Zrotation Xrotation Yrotation
    JOINT lThigh
    {
      OFFSET 0 -1.70687 -2.19456
      CHANNELS 3 Zrotation Xrotation Yrotation
      JOINT lShin
      {
        OFFSET 0 -36.8199 0.73152
        CHANNELS 3 Zrotation Xrotation Yrotation
        JOINT lFoot
        {
          OFFSET -0.73152 -45.1104 -5.12064
          CHANNELS 3 Zrotation Xrotation Yrotation
          End Site
          {
            OFFSET 1.1221 -3.69964 12.103
          }
        }
      }
    }
  }
}
MOTION
Frames:	7
Frame Time:	0.00833333
98.3136 85.1388 128.681 0.0 0.0 0.0 0.410561 -0.00336362 0.0117798 0.11345 -0.00539417 0.0196579 8.27343e-15 1.59028e-15 1.86361e-17 2.47642e-14 9.54166e-15 4.50372e-17 -0.0 0.0 0.0 -0.0 0.0 0.0 4.22292e-15 -1.12593e-17 9.93923e-17 8.82671e-14 -5.28022e-16 1.59028e-15 1.48939e-12 -4.50446e-13 0.0 1.70024e-11 4.10739e-13 4.13472e-14 4.011e-11 -8.21995e-14 9.85972e-14 6.9257e-11 -1.36764e-13 1.64594e-13 4.01136e-11 -8.15017e-14 7.95139e-14 7.73091 5.47488 0.417314 4.01085e-11 -8.26944e-14 9.22361e-14 2.90554 0.965183 0.102902 4.01144e-11 -8.19987e-14 9.30312e-14 10.2786 0.731801 0.0259123 4.01058e-11 -7.99114e-14 1.04958e-13 2.22167 -0.733487 -0.20892 4.02691e-15 -1.16475e-17 -9.93923e-17 8.51266e-14 -4.28629e-16 -5.96354e-16 1.48457e-12 4.38519e-13 -3.18055e-14 1.70059e-11 -4.78251e-13 7.63333e-14 4.01126e-11 -8.21297e-14 8.5875e-14 6.92816e-11 -1.36764e-13 1.59823e-13 4.01092e-11 -8.3092e-14 1.01778e-13 -7.73091 5.47488 -0.417314 4.01116e-11 -8.21975e-14 8.90555e-14 -2.90554 0.965183 -0.102902 4.01075e-11 -8.21975e-14 9.30312e-14 -10.2786 0.731801 -0.0259123 4.01187e-11 -7.99114e-14 8.26944e-14 -2.22167 -0.733487 0.20892 -2.03217e-16 0.0 -3.88251e-19 0.771189 -4.17174 -0.0657016 -0.00265903 2.0054 -0.0183075 -0.462435 2.16694 0.0961822 2.03217e-16 0.0 3.88251e-19 -0.142652 -2.55999 0.0260558 0.00715898 -0.914028 0.0621347 0.453169 3.47455 -0.121138
98.321 83.7717 125.43 177.759 -3.8467 -152.83 -1.13373 -8.73686 -0.664276 1.02223 3.95066 -0.312876 -0.253216 2.77358 -0.286623 0.797237 -7.6351 -0.361596 -0.0 0.0 0.0 -0.0 0.0 0.0 -7.17067e-16 1.30357e-13 1.01228e-13 22.8447 1.24698 -1.33351 -4.52959 -2.12371 7.00223 0.000332262 -0.40454 -0.0568493 -3.77288e-10 1.38999e-09 -2.47884e-10 -6.52856e-10 2.40468e-09 -4.26871e-10 -3.77285e-10 1.38999e-09 -2.479e-10 7.73091 5.47488 0.417314 -3.77288e-10 1.38999e-09 -2.47889e-10 2.90554 0.965183 0.102902 -3.77284e-10 1.38999e-09 -2.47888e-10 10.2786 0.731801 0.0259123 -3.77292e-10 1.38999e-09 -2.47878e-10 2.22167 -0.733487 -0.20892 -9.00444e-16 1.30357e-13 1.01003e-13 -21.0078 5.08246 -0.0641042 3.07966 -1.23011 -4.97828 -0.00528976 1.61353 -0.226443 -7.40291e-10 -4.37809e-10 9.24471e-10 -1.27382e-09 -7.5671e-10 1.60215e-09 -7.40294e-10 -4.37809e-10 9.24484e-10 -7.73091 5.47488 -0.417314 -7.40291e-10 -4.37808e-10 9.24473e-10 -2.90554 0.965183 -0.102902 -7.40296e-10 -4.37808e-10 9.24478e-10 -10.2786 0.731801 -0.0259123 -7.40286e-10 -4.37806e-10 9.2447e-10 -2.22167 -0.733487 0.20892 -2.03217e-16 0.0 -3.88251e-19 1.15409 -12.1531 1.50969 0.00671626 4.13098 0.0474282 -0.681582 -1.85907 -1.24946 2.03217e-16 0.0 3.88251e-19 -0.644833 -9.61706 -1.93869 0.0112322 1.11789 0.0458534 0.60404 1.92558 0.288894
98.3198 83.7559 125.43 177.818 -3.859 -152.823 -2.99833 -17.9645 -1.43204 2.03256 8.13182 -0.669418 -0.489612 5.70096 -0.591727 1.52911 -15.7048 -0.766247 -0.0 0.0 0.0 -0.0 0.0 0.0 -7.64572e-15 2.71832e-13 2.14041e-13 47.0575 2.56479 -2.74678 -8.7587 -4.26347 14.4362 -0.00019038 -0.833696 -0.117167 -8.20092e-10 2.93283e-09 -5.00448e-10 -1.41897e-09 5.07385e-09 -8.61634e-10 -8.2009e-10 2.93283e-09 -5.00459e-10 7.73091 5.47488 0.417314 -8.20092e-10 2.93283e-09 -5.0045e-10 2.90554 0.965183 0.102902 -8.20089e-10 2.93283e-09 -5.0045e-10 10.2786 0.731801 0.0259123 -8.20097e-10 2.93283e-09 -5.00441e-10 2.22167 -0.733487 -0.20892 -7.81652e-15 2.71834e-13 2.1379e-13 -43.2023 10.4515 -0.134718 6.10074 -2.49774 -10.2434 0.00301194 3.32147 -0.466744 -1.58501e-09 -9.3208e-10 1.94468e-09 -2.72752e-09 -1.61106e-09 3.37014e-09 -1.58502e-09 -9.3208e-10 1.94469e-09 -7.73091 5.47488 -0.417314 -1.58501e-09 -9.32079e-10 1.94468e-09 -2.90554 0.965183 -0.102902 -1.58502e-09 -9.32078e-10 1.94468e-09 -10.2786 0.731801 -0.0259123 -1.58501e-09 -9.32077e-10 1.94468e-09 -2.22167 -0.733487 0.20892 -2.03217e-16 0.0 -3.88251e-19 2.06936 -20.5689 3.31914 0.0113428 6.37924 0.117441 -1.12002 -6.11158 -2.68675 2.03217e-16 0.0 3.88251e-19 -1.72158 -17.0471 -4.14176 0.0168507 3.26362 0.0286644 0.787877 0.284002 0.724412
98.3174 83.7373 125.428 177.84 -3.8705 -152.815 -4.90034 -26.1885 -2.22139 2.98007 11.8612 -0.997004 -0.675647 8.31989 -0.867998 2.08158 -22.9015 -1.16719 -0.0 0.0 0.0 -0.0 0.0 0.0 -1.0597e-14 3.91093e-13 3.03485e-13 68.7083 3.73282 -4.0081 -12.0632 -5.9913 21.113 -0.00141199 -1.21362 -0.170582 -1.21208e-09 4.17013e-09 -7.4385e-10 -2.09708e-09 7.2143e-09 -1.28094e-09 -1.21208e-09 4.17013e-09 -7.43858e-10 7.73091 5.47488 0.417314 -1.21208e-09 4.17014e-09 -7.4385e-10 2.90554 0.965183 0.102902 -1.21208e-09 4.17013e-09 -7.43851e-10 10.2786 0.731801 0.0259123 -1.21209e-09 4.17014e-09 -7.43843e-10 2.22167 -0.733487 -0.20892 -1.07552e-14 3.91095e-13 3.03208e-13 -62.9882 15.2473 -0.198546 8.60471 -3.57905 -14.9612 0.0225082 4.8403 -0.681489 -2.3011e-09 -1.31326e-09 2.77324e-09 -3.96002e-09 -2.26986e-09 4.80612e-09 -2.3011e-09 -1.31326e-09 2.77325e-09 -7.73091 5.47488 -0.417314 -2.3011e-09 -1.31326e-09 2.77324e-09 -2.90554 0.965183 -0.102902 -2.3011e-09 -1.31326e-09 2.77325e-09 -10.2786 0.731801 -0.0259123 -2.3011e-09 -1.31326e-09 2.77324e-09 -2.22167 -0.733487 0.20892 -2.03217e-16 0.0 -3.88251e-19 3.38954 -28.0312 5.16597 0.010695 8.38211 0.180435 -1.69324 -9.88877 -3.99813 2.03217e-16 0.0 3.88251e-19 -3.21462 -23.619 -6.31746 0.0228405 5.18172 0.013335 0.972261 -1.17209 1.10826
98.3362 83.7672 125.423 177.865 -3.8745 -152.824 -6.40031 -31.9178 -2.87239 3.67081 14.4627 -1.23403 -0.795045 10.1685 -1.06452 2.41187 -27.919 -1.48079 -0.0 0.0 0.0 -0.0 0.0 0.0 -3.60507e-15 4.54818e-13 3.34505e-13 83.8302 4.53419 -4.88227 -14.1198 -7.05151 25.7955 -0.00265257 -1.47045 -0.206704 -1.47704e-09 4.6436e-09 -9.64347e-10 -2.5552e-09 8.03297e-09 -1.6616e-09 -1.47704e-09 4.6436e-09 -9.64354e-10 7.73091 5.47488 0.417314 -1.47704e-09 4.6436e-09 -9.64347e-10 2.90554 0.965183 0.102902 -1.47703e-09 4.6436e-09 -9.64348e-10 10.2786 0.731801 0.0259123 -1.47704e-09 4.6436e-09 -9.64341e-10 2.22167 -0.733487 -0.20892 -3.75022e-15 4.5482e-13 3.34207e-13 -76.7788 18.6099 -0.239248 10.2579 -4.29962 -18.2861 0.0426896 5.88664 -0.830266 -2.69559e-09 -1.41171e-09 3.12269e-09 -4.6395e-09 -2.43978e-09 5.41209e-09 -2.69559e-09 -1.41171e-09 3.1227e-09 -7.73091 5.47488 -0.417314 -2.69558e-09 -1.41171e-09 3.12269e-09 -2.90554 0.965183 -0.102902 -2.69559e-09 -1.41171e-09 3.1227e-09 -10.2786 0.731801 -0.0259123 -2.69558e-09 -1.41171e-09 3.12269e-09 -2.22167 -0.733487 0.20892 -2.03217e-16 0.0 -3.88251e-19 4.63312 -33.1886 6.64737 0.00736731 9.77155 0.224519 -2.19541 -12.5001 -4.93432 2.03217e-16 0.0 3.88251e-19 -4.60604 -28.1503 -8.01324 0.0273184 6.53077 0.00268402 1.11019 -2.16493 1.36249
98.3365 83.7552 125.418 177.823 -3.8665 -152.821 -7.05778 -34.17 -3.16704 3.9528 15.4906 -1.33049 -0.842111 10.9385 -1.14265 2.54354 -29.8965 -1.60937 -0.0 0.0 0.0 -0.0 0.0 0.0 2.29789e-14 4.3591e-13 2.67502e-13 89.7592 4.82335 -5.20842 -14.8693 -7.42509 27.627 -0.00318182 -1.55955 -0.219239 -1.5825e-09 3.86592e-09 -1.19316e-09 -2.73692e-09 6.68644e-09 -2.0582e-09 -1.58249e-09 3.86592e-09 -1.19317e-09 7.73091 5.47488 0.417314 -1.5825e-09 3.86592e-09 -1.19316e-09 2.90554 0.965183 0.102902 -1.58249e-09 3.86592e-09 -1.19316e-09 10.2786 0.731801 0.0259123 -1.5825e-09 3.86592e-09 -1.19316e-09 2.22167 -0.733487 -0.20892 2.28495e-14 4.35911e-13 2.67185e-13 -82.1873 19.9673 -0.240891 10.9108 -4.58845 -19.6464 0.0516769 6.27215 -0.8853 -2.61832e-09 -1.03836e-09 2.69616e-09 -4.50813e-09 -1.79386e-09 4.67393e-09 -2.61832e-09 -1.03836e-09 2.69617e-09 -7.73091 5.47488 -0.417314 -2.61832e-09 -1.03836e-09 2.69616e-09 -2.90554 0.965183 -0.102902 -2.61833e-09 -1.03836e-09 2.69616e-09 -10.2786 0.731801 -0.0259123 -2.61832e-09 -1.03836e-09 2.69616e-09 -2.22167 -0.733487 0.20892 -2.03217e-16 0.0 -3.88251e-19 5.16789 -35.1876 7.25937 0.00494951 10.306 0.241491 -2.41257 -13.5077 -5.30196 2.03217e-16 0.0 3.88251e-19 -5.26086 -29.9018 -8.72293 0.0285528 7.08325 -0.00114449 1.16081 -2.50118 1.42382
98.3226 83.7385 125.411 177.736 -3.8789 -152.808 -7.03311 -33.9422 -3.15212 3.93165 15.3946 -1.3226 -0.844339 10.9383 -1.13462 2.5659 -29.7031 -1.58569 -0.0 0.0 0.0 -0.0 0.0 0.0 6.3287e-14 3.5821e-13 1.31257e-13 89.1094 4.74838 -5.14177 -14.7802 -7.37882 27.4082 -0.00304168 -1.52863 -0.214889 -1.57315e-09 2.20322e-09 -1.42599e-09 -2.71971e-09 3.80833e-09 -2.46283e-09 -1.57314e-09 2.20322e-09 -1.42601e-09 7.73091 5.47488 0.417314 -1.57315e-09 2.20322e-09 -1.426e-09 2.90554 0.965183 0.102902 -1.57315e-09 2.20322e-09 -1.426e-09 10.2786 0.731801 0.0259123 -1.57316e-09 2.20322e-09 -1.42599e-09 2.22167 -0.733487 -0.20892 6.31753e-14 3.58211e-13 1.30921e-13 -81.611 19.8924 -0.213559 10.8929 -4.59049 -19.5992 0.0499301 6.18567 -0.872967 -2.20511e-09 -3.3162e-10 1.72036e-09 -3.79933e-09 -5.71455e-10 2.98435e-09 -2.20512e-09 -3.31615e-10 1.72037e-09 -7.73091 5.47488 -0.417314 -2.20511e-09 -3.31616e-10 1.72036e-09 -2.90554 0.965183 -0.102902 -2.20512e-09 -3.31615e-10 1.72037e-09 -10.2786 0.731801 -0.0259123 -2.20511e-09 -3.31616e-10 1.72037e-09 -2.22167 -0.733487 0.20892 -2.03217e-16 0.0 -3.88251e-19 5.03043 -34.9498 7.13624 0.00427974 10.2296 0.23884 -2.38166 -13.3742 -5.24915 2.03217e-16 0.0 3.88251e-19 -5.23198 -29.6924 -8.63251 0.0272173 7.06675 -8.28236e-05 1.14494 -2.36896 1.34752
